<svg width="1608" height="308" viewBox="0 0 1608 308" fill="none" xmlns="http://www.w3.org/2000/svg">
<g clip-path="url(#clip0_1_3)" filter="url(#filter0_d_1_3)">
<rect width="1600" height="300" transform="translate(4)" fill="#28293D"/>
<g filter="url(#filter1_i_1_3)">
<path d="M654.472 194.28C650.035 194.28 646.323 193.597 643.336 192.232C640.349 190.867 637.363 188.947 634.376 186.472C632.84 187.496 631.005 188.52 628.872 189.544C626.824 190.483 624.051 191.293 620.552 191.976C617.053 192.573 612.488 192.872 606.856 192.872H596.104C590.813 192.872 586.632 192.019 583.56 190.312C580.573 188.605 578.44 186.216 577.16 183.144C575.88 180.072 575.24 176.488 575.24 172.392V168.04C575.24 161.384 576.563 156.264 579.208 152.68C581.853 149.096 585.651 146.749 590.6 145.64C589.661 144.445 588.723 142.867 587.784 140.904C586.931 138.856 586.504 136.381 586.504 133.48V131.688C586.504 129.64 587.059 127.549 588.168 125.416C589.363 123.197 591.283 121.363 593.928 119.912C596.573 118.376 600.2 117.608 604.808 117.608H618.12C622.387 117.608 625.672 118.12 627.976 119.144C630.28 120.083 631.901 121.32 632.84 122.856C633.864 124.392 634.461 125.971 634.632 127.592C634.888 129.213 635.016 130.664 635.016 131.944V136.68C635.016 138.131 634.589 139.197 633.736 139.88C632.968 140.477 631.901 140.776 630.536 140.776H619.656V134.504C619.656 133.053 619.315 131.944 618.632 131.176C617.949 130.323 616.755 129.896 615.048 129.896H608.776C606.899 129.896 605.533 130.323 604.68 131.176C603.912 131.944 603.528 133.053 603.528 134.504C603.528 136.893 604.04 138.813 605.064 140.264C606.088 141.629 607.923 143.293 610.568 145.256C613.64 147.389 616.669 149.565 619.656 151.784C622.728 153.917 625.587 156.179 628.232 158.568C629.597 159.763 631.091 161.171 632.712 162.792C634.333 164.328 635.827 165.779 637.192 167.144C638.557 168.509 639.453 169.448 639.88 169.96L641.16 169.064V146.28L659.208 147.56V158.312C659.208 160.104 658.952 161.683 658.44 163.048C658.013 164.413 657.075 165.821 655.624 167.272C654.259 168.637 652.893 170.003 651.528 171.368C650.163 172.733 648.797 174.099 647.432 175.464C650.419 178.365 653.576 180.456 656.904 181.736C660.317 183.016 663.133 183.656 665.352 183.656L663.816 192.872C663.133 193.213 661.939 193.512 660.232 193.768C658.611 194.109 656.691 194.28 654.472 194.28ZM600.456 178.92H616.456C619.955 178.92 622.387 178.621 623.752 178.024C625.203 177.427 626.013 177.043 626.184 176.872C624.051 174.824 621.491 172.307 618.504 169.32C615.517 166.333 612.147 163.304 608.392 160.232C605.149 157.587 602.077 156.264 599.176 156.264C596.957 156.264 595.123 157.032 593.672 158.568C592.307 160.019 591.624 162.024 591.624 164.584V169.96C591.624 173.117 592.307 175.421 593.672 176.872C595.037 178.237 597.299 178.92 600.456 178.92ZM687.075 193L724.579 117.736H749.795L787.171 193H767.459L759.907 176.744H714.083L705.763 193H687.075ZM718.691 164.2H755.171L737.635 129.256H736.355L718.691 164.2ZM816.64 193V117.736H833.536V193H816.64Z" fill="#3EEBBE"/>
</g>
<g filter="url(#filter2_i_1_3)">
<path d="M1121.67 155.96C1120.32 155.96 1118.99 155.553 1117.86 154.791C1116.72 154.029 1115.84 152.945 1115.32 151.677C1114.8 150.41 1114.67 149.015 1114.93 147.669C1115.2 146.323 1115.85 145.087 1116.81 144.117C1117.78 143.147 1119 142.486 1120.33 142.218C1121.67 141.951 1123.05 142.088 1124.31 142.613C1125.56 143.138 1126.64 144.027 1127.39 145.168C1128.15 146.309 1128.55 147.65 1128.55 149.022C1128.53 150.855 1127.79 152.606 1126.51 153.902C1125.23 155.197 1123.49 155.936 1121.67 155.96V155.96Z" fill="#32D4AA"/>
<path d="M1119.75 132.927C1117.93 132.927 1116.18 132.197 1114.89 130.896C1113.6 129.594 1112.87 127.83 1112.87 125.99C1112.87 124.15 1113.6 122.385 1114.89 121.084C1116.18 119.783 1117.93 119.052 1119.75 119.052C1123.97 118.737 1127.92 116.821 1130.8 113.69C1133.68 110.559 1135.29 106.444 1135.29 102.171C1135.29 97.8982 1133.68 93.7833 1130.8 90.6523C1127.92 87.5212 1123.97 85.6056 1119.75 85.29C1113.47 84.503 1107.12 86.1202 1101.97 89.8225C1100 91.8821 1098.49 94.3425 1097.54 97.0386C1096.59 99.7347 1096.23 102.604 1096.47 105.455C1096.47 107.295 1095.74 109.06 1094.45 110.361C1093.16 111.662 1091.42 112.392 1089.59 112.392C1087.77 112.392 1086.02 111.662 1084.73 110.361C1083.44 109.06 1082.72 107.295 1082.72 105.455C1082.36 100.56 1083.09 95.6473 1084.85 91.0719C1086.61 86.4966 1089.36 82.3732 1092.89 79C1100.7 72.8739 1110.55 70.0244 1120.39 71.045C1124.34 71.0932 1128.23 71.9265 1131.86 73.4972C1135.48 75.0678 1138.76 77.3449 1141.51 80.1979C1144.26 83.0509 1146.43 86.4237 1147.89 90.1229C1149.34 93.8221 1150.06 97.775 1150 101.755C1150.05 105.808 1149.3 109.83 1147.81 113.592C1146.31 117.354 1144.1 120.781 1141.29 123.677C1138.48 126.573 1135.13 128.881 1131.43 130.468C1127.74 132.056 1123.77 132.891 1119.75 132.927V132.927Z" fill="#32D4AA"/>
<path d="M1115.9 194.532C1103.12 194.44 1090.55 191.269 1079.23 185.282C1078.39 184.89 1077.63 184.329 1077.01 183.632C1076.38 182.936 1075.91 182.119 1075.6 181.231C1075.3 180.344 1075.18 179.403 1075.25 178.467C1075.32 177.531 1075.58 176.619 1076.01 175.786C1076.43 174.953 1077.03 174.216 1077.74 173.62C1078.46 173.024 1079.29 172.582 1080.19 172.32C1081.08 172.057 1082.02 171.981 1082.94 172.094C1083.86 172.208 1084.75 172.509 1085.56 172.98C1098.77 179.827 1113.85 182.071 1128.46 179.362C1140.14 177.023 1150.98 171.561 1159.85 163.546C1168.72 155.532 1175.29 145.26 1178.88 133.804C1182.47 122.348 1182.95 110.129 1180.26 98.4253C1177.57 86.7213 1171.81 75.9618 1163.59 67.2718C1155.36 58.5819 1144.98 52.2806 1133.52 49.0268C1122.05 45.7731 1109.94 45.6863 1098.43 48.7757C1086.92 51.865 1076.45 58.017 1068.11 66.5884C1059.76 75.1597 1053.86 85.8357 1051 97.5C1046.92 114.805 1049.72 133.032 1058.79 148.282C1059.65 149.828 1059.9 151.647 1059.47 153.368C1059.04 155.088 1057.98 156.578 1056.5 157.532C1054.97 158.402 1053.17 158.647 1051.46 158.217C1049.76 157.787 1048.28 156.715 1047.33 155.22C1040.64 144.05 1036.73 131.409 1035.93 118.38C1035.14 105.35 1037.49 92.3212 1042.78 80.4086C1048.07 68.496 1056.14 58.055 1066.31 49.9802C1076.47 41.9054 1088.42 36.4375 1101.14 34.045C1122.06 30.1075 1143.67 34.7173 1161.23 46.8603C1178.78 59.0033 1190.83 77.6848 1194.73 98.795C1198.64 119.905 1194.07 141.715 1182.03 159.426C1170 177.138 1151.49 189.3 1130.57 193.237C1125.72 194.081 1120.82 194.515 1115.9 194.532Z" fill="#32D4AA"/>
<path d="M1044.86 199.25C1042.66 199.303 1040.49 198.794 1038.54 197.77C1036.59 196.745 1034.92 195.239 1033.71 193.392C1032.49 191.545 1031.76 189.417 1031.57 187.206C1031.39 184.996 1031.77 182.774 1032.67 180.75L1046.69 149.115C1047.46 147.473 1048.83 146.2 1050.52 145.567C1052.2 144.935 1054.07 144.994 1055.71 145.732C1057.35 146.47 1058.64 147.829 1059.3 149.516C1059.97 151.203 1059.95 153.085 1059.25 154.758L1046.23 184.912L1079.87 172.795C1080.74 172.412 1081.67 172.213 1082.62 172.21C1083.56 172.208 1084.5 172.402 1085.37 172.78C1086.23 173.159 1087.02 173.714 1087.66 174.41C1088.31 175.107 1088.8 175.93 1089.12 176.829C1089.43 177.728 1089.56 178.682 1089.5 179.634C1089.43 180.585 1089.17 181.512 1088.73 182.357C1088.3 183.203 1087.69 183.948 1086.95 184.547C1086.22 185.146 1085.37 185.585 1084.46 185.837L1049.17 198.51C1047.79 199.021 1046.33 199.271 1044.86 199.25V199.25Z" fill="#32D4AA"/>
</g>
<g filter="url(#filter3_i_1_3)">
<path d="M246.693 261.467C246.688 260.981 246.841 260.504 247.13 260.097C247.419 259.69 247.833 259.371 248.319 259.181C248.804 258.99 249.34 258.937 249.858 259.027C250.376 259.118 250.853 259.348 251.229 259.688C251.604 260.029 251.862 260.465 251.969 260.941C252.076 261.418 252.028 261.913 251.83 262.364C251.632 262.815 251.294 263.202 250.858 263.476C250.422 263.75 249.907 263.899 249.38 263.904C248.676 263.901 248.001 263.645 247.499 263.19C246.997 262.735 246.707 262.117 246.693 261.467V261.467Z" fill="#68FCD6"/>
<path d="M255.538 260.701C255.532 260.049 255.808 259.421 256.304 258.955C256.799 258.49 257.475 258.225 258.182 258.219C258.889 258.212 259.57 258.466 260.074 258.922C260.578 259.379 260.864 260.003 260.87 260.655C261.004 262.165 261.753 263.571 262.965 264.591C264.177 265.611 265.764 266.171 267.406 266.156C269.048 266.142 270.624 265.555 271.818 264.514C273.013 263.472 273.736 262.053 273.845 260.542C274.127 258.292 273.486 256.027 272.047 254.195C271.25 253.498 270.299 252.966 269.26 252.636C268.221 252.305 267.117 252.184 266.023 252.279C265.316 252.286 264.635 252.032 264.131 251.576C263.627 251.119 263.341 250.495 263.335 249.843C263.329 249.191 263.605 248.563 264.101 248.097C264.597 247.632 265.273 247.366 265.98 247.36C267.86 247.218 269.75 247.462 271.514 248.077C273.277 248.691 274.871 249.659 276.178 250.912C278.557 253.685 279.682 257.2 279.321 260.723C279.315 262.135 279.007 263.531 278.414 264.833C277.822 266.135 276.957 267.317 275.869 268.31C274.782 269.304 273.492 270.09 272.075 270.624C270.658 271.157 269.141 271.427 267.612 271.419C266.054 271.45 264.506 271.197 263.056 270.675C261.605 270.152 260.282 269.371 259.16 268.375C258.038 267.38 257.141 266.189 256.519 264.872C255.898 263.556 255.564 262.138 255.538 260.701V260.701Z" fill="#68FCD6"/>
<path d="M231.851 259.531C231.847 254.959 233.026 250.451 235.292 246.382C235.44 246.078 235.653 245.806 235.919 245.58C236.184 245.355 236.497 245.181 236.837 245.07C237.177 244.959 237.538 244.913 237.898 244.935C238.258 244.956 238.61 245.045 238.931 245.195C239.253 245.346 239.538 245.555 239.769 245.81C240 246.065 240.173 246.361 240.276 246.679C240.38 246.998 240.412 247.333 240.371 247.664C240.331 247.994 240.218 248.314 240.039 248.603C237.449 253.352 236.634 258.756 237.72 263.973C238.656 268.143 240.789 272.003 243.896 275.15C247.004 278.297 250.972 280.614 255.386 281.86C259.799 283.106 264.496 283.235 268.986 282.232C273.475 281.23 277.592 279.134 280.906 276.164C284.22 273.193 286.609 269.456 287.823 265.345C289.038 261.234 289.033 256.898 287.81 252.792C286.587 248.686 284.19 244.96 280.87 242.004C277.55 239.047 273.429 236.969 268.938 235.987C262.275 234.586 255.279 235.648 249.447 238.945C248.856 239.258 248.157 239.351 247.495 239.204C246.832 239.058 246.256 238.682 245.885 238.156C245.546 237.611 245.446 236.967 245.606 236.355C245.766 235.744 246.173 235.212 246.745 234.869C251.016 232.436 255.862 230.994 260.867 230.667C265.871 230.34 270.886 231.136 275.48 232.989C280.075 234.841 284.112 237.694 287.247 241.304C290.382 244.913 292.52 249.171 293.48 253.713C295.058 261.184 293.354 268.931 288.742 275.251C284.131 281.571 276.989 285.946 268.889 287.413C260.788 288.879 252.393 287.318 245.549 283.073C238.705 278.827 233.973 272.244 232.395 264.773C232.055 263.043 231.874 261.289 231.851 259.531Z" fill="#68FCD6"/>
<path d="M229.817 234.131C229.789 233.345 229.978 232.565 230.366 231.864C230.753 231.163 231.327 230.564 232.033 230.122C232.739 229.68 233.555 229.411 234.404 229.338C235.252 229.265 236.107 229.392 236.888 229.707L249.089 234.619C249.722 234.887 250.216 235.374 250.464 235.975C250.713 236.576 250.696 237.243 250.417 237.833C250.139 238.423 249.621 238.89 248.974 239.132C248.328 239.375 247.605 239.374 246.96 239.13L235.331 234.575L240.092 246.57C240.242 246.878 240.322 247.211 240.326 247.549C240.33 247.888 240.258 248.223 240.115 248.534C239.973 248.846 239.762 249.127 239.496 249.36C239.23 249.593 238.915 249.774 238.571 249.89C238.227 250.006 237.86 250.055 237.494 250.034C237.129 250.014 236.772 249.924 236.445 249.771C236.119 249.617 235.831 249.403 235.598 249.142C235.366 248.881 235.195 248.578 235.095 248.253L230.115 235.67C229.914 235.178 229.813 234.656 229.817 234.131V234.131Z" fill="#68FCD6"/>
</g>
<path d="M1010.83 228.988H980.171C977.204 228.988 974.359 227.809 972.262 225.711C970.164 223.614 968.985 220.769 968.985 217.802V187.144C968.985 184.177 970.164 181.332 972.262 179.234C974.359 177.137 977.204 175.958 980.171 175.958H1010.83C1013.8 175.958 1016.64 177.137 1018.74 179.234C1020.84 181.332 1022.01 184.177 1022.01 187.144V217.802C1022.01 219.271 1021.73 220.725 1021.16 222.083C1020.6 223.44 1019.78 224.673 1018.74 225.711C1017.7 226.75 1016.47 227.574 1015.11 228.136C1013.75 228.698 1012.3 228.988 1010.83 228.988ZM980.171 180.021C978.282 180.021 976.47 180.771 975.134 182.107C973.798 183.443 973.048 185.255 973.048 187.144V217.802C973.048 219.691 973.798 221.503 975.134 222.839C976.47 224.175 978.282 224.925 980.171 224.925H1010.83C1012.72 224.925 1014.53 224.175 1015.87 222.839C1017.2 221.503 1017.95 219.691 1017.95 217.802V187.144C1017.95 185.255 1017.2 183.443 1015.87 182.107C1014.53 180.771 1012.72 180.021 1010.83 180.021H980.171Z" fill="#68FCD6"/>
<path d="M985.181 205.046C983.62 205.051 982.093 204.593 980.792 203.729C979.492 202.865 978.478 201.634 977.878 200.193C977.278 198.752 977.12 197.165 977.423 195.634C977.726 194.102 978.477 192.696 979.581 191.592C980.685 190.488 982.092 189.737 983.623 189.434C985.155 189.13 986.742 189.289 988.183 189.888C989.624 190.488 990.855 191.503 991.718 192.803C992.582 194.103 993.041 195.631 993.035 197.192C993.035 198.223 992.832 199.244 992.438 200.197C992.043 201.15 991.464 202.016 990.735 202.745C990.006 203.475 989.14 204.053 988.187 204.448C987.234 204.843 986.213 205.046 985.181 205.046V205.046ZM985.181 193.373C984.42 193.368 983.675 193.59 983.041 194.012C982.408 194.433 981.914 195.034 981.625 195.738C981.335 196.441 981.262 197.215 981.415 197.961C981.568 198.706 981.941 199.389 982.485 199.921C983.029 200.453 983.719 200.811 984.468 200.948C985.216 201.085 985.989 200.995 986.686 200.69C987.383 200.385 987.973 199.879 988.381 199.236C988.788 198.594 988.994 197.844 988.973 197.083C988.945 196.094 988.534 195.154 987.827 194.462C987.119 193.77 986.171 193.38 985.181 193.373V193.373Z" fill="#68FCD6"/>
<path d="M1006.33 205.046C1004.77 205.051 1003.24 204.593 1001.94 203.729C1000.64 202.865 999.63 201.634 999.03 200.193C998.43 198.752 998.272 197.165 998.575 195.634C998.878 194.102 999.63 192.696 1000.73 191.592C1001.84 190.488 1003.24 189.737 1004.78 189.434C1006.31 189.13 1007.89 189.289 1009.33 189.888C1010.78 190.488 1012.01 191.503 1012.87 192.803C1013.73 194.103 1014.19 195.631 1014.19 197.192C1014.18 199.273 1013.35 201.266 1011.88 202.738C1010.41 204.209 1008.41 205.039 1006.33 205.046V205.046ZM1006.33 193.373C1005.57 193.357 1004.82 193.57 1004.18 193.985C1003.54 194.399 1003.04 194.996 1002.74 195.699C1002.44 196.402 1002.36 197.178 1002.51 197.927C1002.65 198.675 1003.02 199.363 1003.56 199.901C1004.1 200.439 1004.8 200.802 1005.55 200.943C1006.3 201.085 1007.07 200.998 1007.77 200.695C1008.47 200.392 1009.06 199.886 1009.47 199.242C1009.88 198.598 1010.09 197.846 1010.07 197.083C1010.04 196.103 1009.64 195.171 1008.94 194.481C1008.25 193.79 1007.31 193.393 1006.33 193.373V193.373Z" fill="#68FCD6"/>
<path d="M1006.33 217.179H985.181C984.643 217.179 984.126 216.965 983.745 216.584C983.364 216.203 983.15 215.687 983.15 215.148C983.15 214.609 983.364 214.093 983.745 213.712C984.126 213.331 984.643 213.117 985.181 213.117H1006.33C1006.87 213.117 1007.39 213.331 1007.77 213.712C1008.15 214.093 1008.36 214.609 1008.36 215.148C1008.36 215.687 1008.15 216.203 1007.77 216.584C1007.39 216.965 1006.87 217.179 1006.33 217.179V217.179Z" fill="#68FCD6"/>
<g clip-path="url(#clip1_1_3)">
<g filter="url(#filter4_i_1_3)">
<path d="M-40.0206 238.818L6.81606 173.155C11.3481 166.802 17.997 162.351 25.3002 160.781C32.6034 159.212 39.9626 160.653 45.7589 164.788L105.662 207.516C111.458 211.65 115.216 218.139 116.11 225.556C117.004 232.972 114.961 240.708 110.429 247.061L63.592 312.724C59.06 319.077 52.411 323.528 45.1078 325.098C37.8046 326.667 30.4454 325.226 24.6491 321.091L-35.2535 278.363C-38.1236 276.316 -40.5235 273.669 -42.3163 270.574C-44.1091 267.479 -45.2597 263.995 -45.7024 260.323C-46.145 256.651 -45.8711 252.862 -44.8962 249.172C-43.9213 245.482 -42.2646 241.964 -40.0206 238.818ZM102.491 241.399C105.377 237.353 106.678 232.427 106.109 227.705C105.54 222.982 103.146 218.85 99.4553 216.217L39.5526 173.489C35.8615 170.856 31.1752 169.938 26.5245 170.937C21.8738 171.937 17.6397 174.771 14.7537 178.817L-32.0829 244.48C-34.9689 248.526 -36.2704 253.452 -35.7011 258.174C-35.1318 262.897 -32.7384 267.029 -29.0473 269.662L30.8554 312.39C34.5465 315.023 39.2328 315.941 43.8835 314.942C48.5343 313.942 52.7683 311.108 55.6543 307.062L102.491 241.399Z" fill="#32D4AA"/>
<path d="M45.9408 217.253C48.3151 213.903 51.5442 211.27 55.2186 209.689C58.8929 208.109 62.847 207.651 66.5794 208.375C70.3117 209.099 73.6542 210.971 76.183 213.755C78.7118 216.539 80.3129 220.108 80.7834 224.011C81.2538 227.913 80.5724 231.973 78.8254 235.675C77.0785 239.378 74.3448 242.556 70.971 244.806C67.5972 247.057 63.7353 248.279 59.875 248.317C56.0147 248.356 52.33 247.208 49.2881 245.021C47.2728 243.584 45.5876 241.725 44.3287 239.552C43.0698 237.379 42.2619 234.933 41.9511 232.354C41.6403 229.776 41.8326 227.115 42.5172 224.524C43.2017 221.933 44.3651 219.463 45.9408 217.253V217.253ZM68.7482 233.522C69.9207 231.899 70.6245 229.993 70.7694 228.049C70.9143 226.105 70.4937 224.21 69.5615 222.609C68.6293 221.008 67.2281 219.773 65.5376 219.062C63.847 218.351 61.9443 218.198 60.0735 218.621C58.2027 219.044 56.4491 220.025 55.0377 221.437C53.6263 222.849 52.6215 224.628 52.1522 226.546C51.6829 228.464 51.7704 230.434 52.4036 232.203C53.0368 233.971 54.1868 235.458 55.706 236.472C57.6817 237.79 60.1456 238.22 62.5786 237.669C65.0115 237.119 67.2234 235.632 68.7482 233.522V233.522Z" fill="#32D4AA"/>
<path d="M13.6268 262.556C16.0012 259.205 19.2303 256.572 22.9046 254.992C26.579 253.411 30.533 252.954 34.2654 253.678C37.9978 254.401 41.3403 256.274 43.8691 259.057C46.3978 261.841 47.999 265.411 48.4694 269.313C48.9398 273.216 48.2584 277.276 46.5115 280.978C44.7646 284.68 42.0309 287.858 38.6571 290.109C35.2833 292.36 31.4213 293.582 27.5611 293.62C23.7008 293.658 20.016 292.511 16.9741 290.324C12.9193 287.409 10.2917 282.853 9.6646 277.651C9.03752 272.449 10.4618 267.023 13.6268 262.556V262.556ZM36.4342 278.824C37.6311 277.212 38.3611 275.308 38.5299 273.358C38.6987 271.408 38.2987 269.5 37.3814 267.883C36.464 266.265 35.0715 265.011 33.3835 264.282C31.6955 263.553 29.7895 263.383 27.9113 263.793C26.0332 264.204 24.2691 265.177 22.8466 266.586C21.4242 267.995 20.4087 269.775 19.9312 271.698C19.4537 273.621 19.5361 275.597 20.1677 277.373C20.7994 279.148 21.9513 280.641 23.4748 281.658C25.4318 282.965 27.8688 283.399 30.2813 282.872C32.6938 282.344 34.8968 280.895 36.4342 278.824V278.824Z" fill="#32D4AA"/>
<path d="M-10.0802 245.646L22.2337 200.343C23.0567 199.19 24.2642 198.381 25.5904 198.096C26.9166 197.811 28.2531 198.073 29.3057 198.824C30.3583 199.575 31.0408 200.753 31.2032 202.1C31.3655 203.447 30.9943 204.851 30.1713 206.005L-2.1426 251.308C-2.96561 252.462 -4.17304 253.27 -5.49929 253.555C-6.82553 253.84 -8.16195 253.578 -9.21455 252.827C-10.2671 252.076 -10.9497 250.898 -11.112 249.551C-11.2744 248.204 -10.9032 246.8 -10.0802 245.646V245.646Z" fill="#32D4AA"/>
</g>
</g>
<g clip-path="url(#clip2_1_3)" filter="url(#filter5_i_1_3)">
<path d="M1451.61 235.856L1405.33 265.912C1400.85 268.82 1395.36 269.769 1390.07 268.551C1384.78 267.333 1380.11 264.046 1377.1 259.415L1345.97 211.466C1342.96 206.834 1341.85 201.237 1342.89 195.906C1343.93 190.575 1347.03 185.946 1351.51 183.037L1397.79 152.981C1402.27 150.073 1407.76 149.124 1413.05 150.342C1418.35 151.561 1423.01 154.847 1426.02 159.479L1457.1 207.343C1458.61 209.636 1459.66 212.195 1460.2 214.871C1460.74 217.547 1460.75 220.289 1460.24 222.939C1459.73 225.588 1458.71 228.093 1457.23 230.31C1455.74 232.527 1453.84 234.412 1451.61 235.856V235.856ZM1355.63 189.38C1352.78 191.232 1350.8 194.179 1350.14 197.575C1349.48 200.97 1350.18 204.534 1352.1 207.483L1383.18 255.347C1385.1 258.297 1388.07 260.39 1391.44 261.165C1394.81 261.941 1398.31 261.337 1401.16 259.485L1447.44 229.429C1450.29 227.577 1452.27 224.629 1452.93 221.234C1453.59 217.839 1452.89 214.275 1450.97 211.326L1419.89 163.461C1418.94 162.001 1417.72 160.735 1416.3 159.737C1414.89 158.739 1413.3 158.027 1411.63 157.643C1409.96 157.259 1408.24 157.21 1406.58 157.498C1404.91 157.786 1403.32 158.407 1401.91 159.324L1355.63 189.38Z" fill="#3EEBBE"/>
<path d="M1426.46 192.917C1425.64 193.432 1424.65 193.597 1423.69 193.377C1422.73 193.156 1421.89 192.568 1421.33 191.737C1420.25 190.327 1418.69 189.367 1416.97 189.046C1415.25 188.726 1413.49 189.069 1412.04 190.007C1410.6 190.946 1409.57 192.411 1409.16 194.113C1408.76 195.815 1409 197.63 1409.85 199.198C1410.39 200.039 1410.59 201.056 1410.4 202.024C1410.21 202.992 1409.65 203.832 1408.84 204.361C1408.03 204.889 1407.03 205.061 1406.07 204.84C1405.11 204.619 1404.26 204.022 1403.71 203.181C1401.86 199.932 1401.27 196.125 1402.08 192.538C1402.89 188.951 1405.03 185.855 1408.07 183.884C1411.1 181.913 1414.8 181.217 1418.41 181.936C1422.01 182.655 1425.25 184.737 1427.47 187.755C1428 188.599 1428.19 189.611 1428.01 190.576C1427.82 191.54 1427.26 192.38 1426.46 192.917V192.917Z" fill="#3EEBBE"/>
<path d="M1394.61 213.6C1393.79 214.115 1392.8 214.28 1391.84 214.06C1390.89 213.84 1390.04 213.251 1389.48 212.421C1388.47 210.851 1386.88 209.737 1385.09 209.323C1383.3 208.91 1381.43 209.232 1379.92 210.218C1378.4 211.204 1377.35 212.773 1376.99 214.58C1376.64 216.388 1377.02 218.285 1378.04 219.855C1378.58 220.696 1378.78 221.712 1378.59 222.681C1378.41 223.649 1377.84 224.489 1377.03 225.017C1376.22 225.546 1375.22 225.718 1374.26 225.497C1373.3 225.275 1372.45 224.679 1371.9 223.838C1369.79 220.585 1369.02 216.655 1369.75 212.912C1370.48 209.168 1372.65 205.918 1375.8 203.876C1378.94 201.834 1382.8 201.167 1386.51 202.023C1390.23 202.878 1393.51 205.186 1395.62 208.438C1396.16 209.279 1396.36 210.295 1396.18 211.264C1395.99 212.232 1395.42 213.072 1394.61 213.6Z" fill="#3EEBBE"/>
<path d="M1432.8 221.744L1400.87 242.48C1400.05 243.008 1399.06 243.181 1398.1 242.959C1397.13 242.738 1396.29 242.141 1395.74 241.3C1395.2 240.459 1394.99 239.443 1395.18 238.474C1395.37 237.506 1395.94 236.666 1396.75 236.138L1428.68 215.401C1429.49 214.873 1430.49 214.701 1431.45 214.922C1432.41 215.143 1433.26 215.74 1433.81 216.581C1434.35 217.422 1434.55 218.438 1434.36 219.407C1434.18 220.375 1433.61 221.215 1432.8 221.744V221.744Z" fill="#3EEBBE"/>
</g>
<g filter="url(#filter6_i_1_3)">
<path d="M514.903 221.333H420.098C410.924 221.333 402.126 218.36 395.64 213.067C389.153 207.775 385.509 200.597 385.509 193.112V115.622C385.509 108.137 389.153 100.959 395.64 95.6659C402.126 90.3733 410.924 87.4 420.098 87.4H514.903C524.076 87.4 532.874 90.3733 539.36 95.6659C545.847 100.959 549.491 108.137 549.491 115.622V192.975C549.513 196.693 548.635 200.377 546.907 203.817C545.178 207.257 542.634 210.384 539.42 213.019C536.206 215.654 532.385 217.745 528.178 219.172C523.97 220.599 519.459 221.333 514.903 221.333V221.333ZM420.098 97.65C414.256 97.65 408.653 99.5434 404.523 102.914C400.392 106.284 398.071 110.855 398.071 115.622V192.975C398.071 197.741 400.392 202.313 404.523 205.683C408.653 209.053 414.256 210.947 420.098 210.947H514.903C520.744 210.947 526.347 209.053 530.477 205.683C534.608 202.313 536.929 197.741 536.929 192.975V115.622C536.929 113.262 536.359 110.925 535.252 108.744C534.145 106.564 532.523 104.583 530.477 102.914C528.432 101.245 526.004 99.9212 523.332 99.018C520.659 98.1148 517.795 97.65 514.903 97.65H420.098Z" fill="#3EEBBE"/>
<path d="M435.591 153.957C429.15 153.957 422.972 151.869 418.417 148.152C413.863 144.436 411.304 139.396 411.304 134.14C411.304 132.781 411.966 131.477 413.144 130.516C414.321 129.555 415.919 129.015 417.585 129.015C419.251 129.015 420.849 129.555 422.027 130.516C423.205 131.477 423.866 132.781 423.866 134.14C423.866 136.677 425.102 139.111 427.3 140.905C429.499 142.699 432.482 143.707 435.591 143.707C438.701 143.707 441.683 142.699 443.882 140.905C446.081 139.111 447.316 136.677 447.316 134.14C447.316 132.781 447.978 131.477 449.156 130.516C450.334 129.555 451.932 129.015 453.598 129.015C455.263 129.015 456.861 129.555 458.039 130.516C459.217 131.477 459.879 132.781 459.879 134.14C459.879 136.742 459.251 139.319 458.03 141.723C456.809 144.128 455.02 146.312 452.765 148.152C450.51 149.993 447.832 151.452 444.886 152.448C441.939 153.444 438.781 153.957 435.591 153.957V153.957Z" fill="#3EEBBE"/>
<path d="M501 153.957C494.551 153.957 488.365 151.871 483.796 148.157C479.228 144.442 476.651 139.402 476.629 134.14C476.629 132.781 477.291 131.477 478.468 130.516C479.646 129.555 481.244 129.015 482.91 129.015C484.576 129.015 486.174 129.555 487.352 130.516C488.529 131.477 489.191 132.781 489.191 134.14C489.44 136.546 490.788 138.789 492.967 140.423C495.146 142.057 497.998 142.964 500.958 142.964C503.918 142.964 506.77 142.057 508.949 140.423C511.128 138.789 512.476 136.546 512.725 134.14C512.725 132.781 513.387 131.477 514.565 130.516C515.743 129.555 517.34 129.015 519.006 129.015C520.672 129.015 522.27 129.555 523.448 130.516C524.626 131.477 525.287 132.781 525.287 134.14C525.287 136.742 524.659 139.319 523.439 141.723C522.218 144.128 520.429 146.312 518.174 148.152C515.919 149.993 513.241 151.452 510.294 152.448C507.348 153.444 504.189 153.957 501 153.957V153.957Z" fill="#3EEBBE"/>
<path d="M501 191.403H435.591C433.925 191.403 432.328 190.863 431.15 189.902C429.972 188.941 429.31 187.638 429.31 186.278C429.31 184.919 429.972 183.616 431.15 182.654C432.328 181.693 433.925 181.153 435.591 181.153H501C502.666 181.153 504.264 181.693 505.442 182.654C506.619 183.616 507.281 184.919 507.281 186.278C507.281 187.638 506.619 188.941 505.442 189.902C504.264 190.863 502.666 191.403 501 191.403V191.403Z" fill="#3EEBBE"/>
</g>
<g filter="url(#filter7_i_1_3)">
<path d="M1286.38 183.973C1286.64 184.744 1286.67 185.575 1286.45 186.359C1286.24 187.144 1285.8 187.847 1285.19 188.379C1284.58 188.912 1283.83 189.251 1283.02 189.352C1282.22 189.453 1281.41 189.313 1280.68 188.949C1279.95 188.585 1279.35 188.014 1278.95 187.307C1278.55 186.6 1278.36 185.79 1278.42 184.978C1278.47 184.167 1278.76 183.391 1279.26 182.749C1279.75 182.107 1280.43 181.627 1281.2 181.37C1282.23 181.04 1283.34 181.128 1284.31 181.614C1285.28 182.1 1286.02 182.947 1286.38 183.973V183.973Z" fill="#3EEBBE"/>
<path d="M1273.86 189.378C1274.21 190.412 1274.13 191.542 1273.65 192.517C1273.16 193.492 1272.31 194.234 1271.28 194.578C1270.25 194.923 1269.13 194.842 1268.16 194.354C1267.18 193.866 1266.44 193.01 1266.1 191.975C1265.12 189.638 1263.3 187.755 1261 186.706C1258.7 185.657 1256.09 185.518 1253.7 186.318C1251.31 187.118 1249.31 188.798 1248.11 191.019C1246.9 193.241 1246.58 195.841 1247.2 198.296C1247.96 202.009 1250.07 205.307 1253.12 207.541C1254.64 208.272 1256.31 208.668 1258 208.701C1259.69 208.735 1261.36 208.406 1262.91 207.736C1263.94 207.391 1265.06 207.472 1266.04 207.96C1267.01 208.448 1267.75 209.304 1268.1 210.339C1268.44 211.374 1268.37 212.503 1267.88 213.478C1267.4 214.454 1266.55 215.195 1265.52 215.54C1262.85 216.656 1259.96 217.162 1257.07 217.02C1254.17 216.878 1251.34 216.091 1248.79 214.718C1243.87 211.432 1240.41 206.375 1239.11 200.599C1238.39 198.352 1238.12 195.984 1238.31 193.633C1238.5 191.282 1239.15 188.993 1240.22 186.898C1241.3 184.803 1242.77 182.942 1244.57 181.423C1246.36 179.904 1248.43 178.756 1250.67 178.045C1252.93 177.259 1255.32 176.928 1257.71 177.073C1260.1 177.217 1262.44 177.833 1264.59 178.886C1266.75 179.939 1268.68 181.407 1270.27 183.208C1271.86 185.008 1273.08 187.105 1273.86 189.378V189.378Z" fill="#3EEBBE"/>
<path d="M1309.06 180.029C1311.44 187.298 1312.05 195.027 1310.85 202.571C1310.79 203.124 1310.62 203.659 1310.35 204.143C1310.08 204.627 1309.71 205.051 1309.27 205.389C1308.83 205.726 1308.33 205.97 1307.79 206.107C1307.26 206.243 1306.7 206.268 1306.15 206.181C1305.6 206.094 1305.08 205.896 1304.61 205.6C1304.14 205.303 1303.73 204.914 1303.42 204.457C1303.1 203.999 1302.88 203.482 1302.77 202.937C1302.66 202.391 1302.65 201.829 1302.77 201.284C1304.09 192.505 1302.48 183.524 1298.19 175.741C1294.66 169.551 1289.55 164.42 1283.38 160.886C1277.21 157.352 1270.21 155.544 1263.12 155.651C1256.03 155.759 1249.1 157.777 1243.06 161.496C1237.03 165.215 1232.1 170.497 1228.8 176.791C1225.5 183.084 1223.94 190.158 1224.3 197.273C1224.66 204.387 1226.91 211.281 1230.82 217.233C1234.74 223.185 1240.17 227.977 1246.55 231.108C1252.93 234.239 1260.02 235.593 1267.09 235.03C1277.55 234.104 1287.22 229.104 1294.03 221.1C1294.73 220.322 1295.7 219.843 1296.75 219.763C1297.79 219.683 1298.82 220.007 1299.64 220.669C1300.42 221.375 1300.9 222.353 1300.98 223.401C1301.06 224.449 1300.74 225.488 1300.09 226.304C1295.11 232.195 1288.78 236.782 1281.64 239.671C1274.5 242.561 1266.76 243.667 1259.09 242.895C1251.42 242.123 1244.04 239.496 1237.6 235.239C1231.15 230.982 1225.82 225.222 1222.06 218.452C1215.89 207.316 1214.36 194.186 1217.82 181.951C1221.29 169.716 1229.45 159.378 1240.52 153.211C1251.59 147.044 1264.66 145.553 1276.86 149.067C1289.06 152.581 1299.38 160.811 1305.55 171.947C1306.95 174.538 1308.12 177.242 1309.06 180.029Z" fill="#3EEBBE"/>
<path d="M1325.19 219.466C1325.64 220.703 1325.77 222.033 1325.57 223.331C1325.36 224.63 1324.84 225.854 1324.03 226.891C1323.23 227.928 1322.18 228.743 1320.98 229.26C1319.78 229.777 1318.46 229.98 1317.16 229.849L1296.79 227.812C1295.73 227.684 1294.76 227.144 1294.08 226.305C1293.41 225.467 1293.09 224.398 1293.19 223.327C1293.29 222.257 1293.8 221.27 1294.62 220.578C1295.44 219.887 1296.5 219.545 1297.56 219.628L1316.91 221.37L1303.74 204.545C1303.36 204.125 1303.07 203.632 1302.89 203.096C1302.71 202.561 1302.64 201.993 1302.69 201.43C1302.74 200.867 1302.9 200.32 1303.17 199.824C1303.43 199.327 1303.8 198.891 1304.24 198.544C1304.69 198.196 1305.2 197.944 1305.74 197.804C1306.29 197.663 1306.85 197.637 1307.41 197.727C1307.97 197.817 1308.5 198.021 1308.97 198.326C1309.45 198.631 1309.85 199.032 1310.17 199.501L1323.96 217.159C1324.51 217.846 1324.93 218.628 1325.19 219.466V219.466Z" fill="#3EEBBE"/>
</g>
<g clip-path="url(#clip3_1_3)">
<path d="M294.451 122.933L304.103 117.018C305.037 116.446 306.16 116.268 307.225 116.523C308.29 116.779 309.21 117.447 309.782 118.381L315.707 128.05C316.279 128.984 316.457 130.107 316.202 131.172C315.946 132.237 315.278 133.157 314.344 133.73L304.692 139.644C303.758 140.217 302.635 140.395 301.57 140.139C300.505 139.883 299.585 139.215 299.012 138.281L293.098 128.629C292.811 128.166 292.619 127.652 292.532 127.115C292.445 126.578 292.465 126.029 292.59 125.5C292.716 124.97 292.945 124.471 293.264 124.03C293.584 123.59 293.987 123.217 294.451 122.933V122.933ZM313.56 132.451C314.155 132.086 314.58 131.5 314.743 130.822C314.906 130.144 314.793 129.429 314.428 128.834L308.513 119.182C308.149 118.587 307.563 118.162 306.885 117.999C306.207 117.836 305.492 117.949 304.897 118.314L295.245 124.229C294.65 124.593 294.225 125.179 294.062 125.857C293.899 126.535 294.012 127.25 294.377 127.845L300.291 137.497C300.472 137.792 300.709 138.048 300.988 138.251C301.267 138.454 301.584 138.6 301.92 138.68C302.256 138.761 302.604 138.775 302.945 138.721C303.286 138.667 303.614 138.546 303.908 138.365L313.56 132.451Z" fill="#68FCD6"/>
<path d="M307.677 126.392C308.333 125.99 309.121 125.865 309.869 126.044C310.617 126.224 311.263 126.693 311.665 127.349C311.769 127.519 311.801 127.723 311.755 127.916C311.708 128.109 311.587 128.276 311.417 128.38C311.248 128.484 311.044 128.517 310.85 128.47C310.657 128.424 310.49 128.302 310.386 128.133C310.192 127.816 309.88 127.59 309.519 127.503C309.158 127.416 308.777 127.477 308.461 127.671C308.144 127.865 307.918 128.176 307.831 128.537C307.744 128.898 307.805 129.279 307.999 129.596C308.103 129.765 308.135 129.969 308.088 130.163C308.042 130.356 307.921 130.523 307.751 130.627C307.581 130.731 307.378 130.763 307.184 130.717C306.991 130.67 306.824 130.549 306.72 130.379C306.521 130.055 306.388 129.694 306.328 129.318C306.268 128.942 306.284 128.558 306.372 128.187C306.461 127.817 306.622 127.468 306.846 127.16C307.07 126.852 307.352 126.591 307.677 126.392V126.392Z" fill="#68FCD6"/>
<path d="M301.018 130.472C301.675 130.07 302.464 129.944 303.213 130.123C303.962 130.301 304.61 130.769 305.014 131.424C305.118 131.594 305.151 131.798 305.104 131.991C305.058 132.185 304.936 132.352 304.767 132.456C304.597 132.56 304.393 132.592 304.2 132.546C304.006 132.499 303.839 132.378 303.735 132.208C303.526 131.924 303.217 131.728 302.871 131.66C302.524 131.592 302.164 131.657 301.863 131.841C301.561 132.026 301.34 132.317 301.244 132.657C301.147 132.997 301.181 133.361 301.34 133.676C301.443 133.846 301.476 134.05 301.429 134.243C301.383 134.437 301.262 134.604 301.092 134.708C300.922 134.812 300.718 134.844 300.525 134.798C300.332 134.751 300.164 134.63 300.061 134.46C299.862 134.135 299.729 133.775 299.669 133.399C299.609 133.022 299.624 132.638 299.713 132.268C299.802 131.898 299.963 131.548 300.187 131.24C300.411 130.932 300.693 130.671 301.018 130.472V130.472Z" fill="#68FCD6"/>
<path d="M298.155 125.8L304.814 121.719C304.983 121.615 305.187 121.583 305.381 121.629C305.574 121.676 305.741 121.797 305.845 121.967C305.949 122.136 305.981 122.34 305.935 122.534C305.889 122.727 305.767 122.894 305.598 122.998L298.938 127.079C298.769 127.183 298.565 127.215 298.371 127.169C298.178 127.122 298.011 127.001 297.907 126.831C297.803 126.662 297.771 126.458 297.817 126.264C297.864 126.071 297.985 125.904 298.155 125.8V125.8Z" fill="#68FCD6"/>
</g>
<path d="M221.66 223H210.34C209.245 223 208.194 222.565 207.42 221.79C206.645 221.016 206.21 219.965 206.21 218.87V207.53C206.21 206.435 206.645 205.384 207.42 204.61C208.194 203.835 209.245 203.4 210.34 203.4H221.66C222.755 203.4 223.806 203.835 224.58 204.61C225.355 205.384 225.79 206.435 225.79 207.53V218.85C225.793 219.394 225.688 219.933 225.481 220.437C225.275 220.94 224.971 221.398 224.587 221.783C224.204 222.169 223.747 222.475 223.245 222.684C222.743 222.893 222.204 223 221.66 223V223ZM210.34 204.9C209.642 204.9 208.974 205.177 208.48 205.67C207.987 206.164 207.71 206.832 207.71 207.53V218.85C207.71 219.548 207.987 220.216 208.48 220.71C208.974 221.203 209.642 221.48 210.34 221.48H221.66C222.358 221.48 223.026 221.203 223.52 220.71C224.013 220.216 224.29 219.548 224.29 218.85V207.53C224.29 207.185 224.222 206.843 224.09 206.524C223.958 206.204 223.764 205.915 223.52 205.67C223.275 205.426 222.986 205.232 222.666 205.1C222.347 204.968 222.005 204.9 221.66 204.9H210.34Z" fill="#68FCD6"/>
<path d="M212.19 213.14C211.421 213.14 210.683 212.834 210.139 212.291C209.596 211.747 209.29 211.009 209.29 210.24C209.29 210.041 209.369 209.85 209.51 209.71C209.65 209.569 209.841 209.49 210.04 209.49C210.239 209.49 210.43 209.569 210.57 209.71C210.711 209.85 210.79 210.041 210.79 210.24C210.79 210.611 210.937 210.967 211.2 211.23C211.463 211.492 211.819 211.64 212.19 211.64C212.561 211.64 212.917 211.492 213.18 211.23C213.442 210.967 213.59 210.611 213.59 210.24C213.59 210.041 213.669 209.85 213.81 209.71C213.95 209.569 214.141 209.49 214.34 209.49C214.539 209.49 214.73 209.569 214.87 209.71C215.011 209.85 215.09 210.041 215.09 210.24C215.09 210.621 215.015 210.998 214.869 211.35C214.723 211.702 214.51 212.021 214.241 212.291C213.971 212.56 213.652 212.774 213.3 212.919C212.948 213.065 212.571 213.14 212.19 213.14V213.14Z" fill="#68FCD6"/>
<path d="M220 213.14C219.23 213.14 218.491 212.835 217.946 212.291C217.4 211.748 217.093 211.01 217.09 210.24C217.09 210.041 217.169 209.85 217.31 209.71C217.45 209.569 217.641 209.49 217.84 209.49C218.039 209.49 218.23 209.569 218.37 209.71C218.511 209.85 218.59 210.041 218.59 210.24C218.62 210.592 218.781 210.92 219.041 211.159C219.301 211.399 219.642 211.531 219.995 211.531C220.348 211.531 220.689 211.399 220.949 211.159C221.209 210.92 221.37 210.592 221.4 210.24C221.4 210.041 221.479 209.85 221.62 209.71C221.76 209.569 221.951 209.49 222.15 209.49C222.349 209.49 222.54 209.569 222.68 209.71C222.821 209.85 222.9 210.041 222.9 210.24C222.9 210.621 222.825 210.998 222.679 211.35C222.534 211.702 222.32 212.021 222.051 212.291C221.781 212.56 221.462 212.774 221.11 212.919C220.758 213.065 220.381 213.14 220 213.14V213.14Z" fill="#68FCD6"/>
<path d="M220 218.62H212.19C211.991 218.62 211.8 218.541 211.66 218.4C211.519 218.26 211.44 218.069 211.44 217.87C211.44 217.671 211.519 217.48 211.66 217.34C211.8 217.199 211.991 217.12 212.19 217.12H220C220.199 217.12 220.39 217.199 220.53 217.34C220.671 217.48 220.75 217.671 220.75 217.87C220.75 218.069 220.671 218.26 220.53 218.4C220.39 218.541 220.199 218.62 220 218.62V218.62Z" fill="#68FCD6"/>
<g clip-path="url(#clip4_1_3)">
<path d="M220.027 118.069L197.214 102.97C195.007 101.509 193.42 99.3061 192.803 96.8467C192.187 94.3873 192.59 91.8725 193.925 89.8554L207.747 68.9728C209.082 66.9557 211.24 65.6016 213.744 65.2085C216.249 64.8153 218.897 65.4152 221.104 66.8762L243.916 81.9753C246.124 83.4364 247.71 85.6388 248.327 88.0982C248.944 90.5576 248.54 93.0725 247.205 95.0895L233.408 115.935C232.75 116.941 231.881 117.794 230.852 118.445C229.822 119.097 228.652 119.535 227.409 119.733C226.166 119.931 224.873 119.886 223.606 119.601C222.34 119.315 221.123 118.794 220.027 118.069V118.069ZM219.276 69.6384C217.87 68.7081 216.184 68.326 214.589 68.5764C212.994 68.8268 211.62 69.6891 210.77 70.9736L196.973 91.8193C196.122 93.1038 195.865 94.7053 196.258 96.2714C196.651 97.8376 197.661 99.2401 199.067 100.17L221.879 115.27C223.285 116.2 224.971 116.582 226.566 116.332C228.161 116.081 229.535 115.219 230.385 113.935L244.182 93.0888C244.603 92.4527 244.883 91.7322 245.006 90.9683C245.128 90.2044 245.091 89.4121 244.897 88.6367C244.702 87.8612 244.354 87.1177 243.872 86.4487C243.39 85.7797 242.784 85.1983 242.088 84.7376L219.276 69.6384Z" fill="#68FCD6"/>
<path d="M212.96 87.28C211.41 86.2541 210.296 84.7076 209.863 82.9806C209.43 81.2537 209.713 79.4878 210.651 78.0715C210.893 77.7052 211.285 77.4593 211.74 77.3879C212.195 77.3165 212.676 77.4254 213.077 77.6908C213.477 77.9561 213.765 78.356 213.877 78.8027C213.99 79.2493 213.916 79.706 213.674 80.0723C213.221 80.756 213.084 81.6085 213.294 82.4422C213.503 83.2759 214.04 84.0225 214.789 84.5177C215.537 85.013 216.434 85.2164 217.283 85.0831C218.133 84.9498 218.864 84.4908 219.316 83.807C219.559 83.4407 219.951 83.1948 220.405 83.1234C220.86 83.052 221.341 83.161 221.742 83.4263C222.143 83.6916 222.431 84.0916 222.543 84.5382C222.655 84.9848 222.582 85.4415 222.339 85.8078C221.875 86.5091 221.264 87.1035 220.542 87.557C219.819 88.0106 218.999 88.3143 218.128 88.451C217.257 88.5878 216.353 88.5547 215.466 88.3538C214.579 88.1528 213.728 87.788 212.96 87.28V87.28Z" fill="#68FCD6"/>
<path d="M228.699 97.6974C227.147 96.6702 226.031 95.1229 225.594 93.3944C225.158 91.6659 225.436 89.8971 226.37 88.4755C226.612 88.1092 227.004 87.8633 227.459 87.7919C227.914 87.7205 228.394 87.8295 228.795 88.0948C229.196 88.3601 229.484 88.7601 229.596 89.2067C229.708 89.6533 229.635 90.11 229.393 90.4763C229.023 91.1645 228.948 91.9834 229.18 92.7709C229.413 93.5584 229.938 94.257 230.65 94.7284C231.362 95.1998 232.21 95.4096 233.026 95.3163C233.842 95.2229 234.566 94.8332 235.055 94.2244C235.298 93.8581 235.69 93.6122 236.144 93.5408C236.599 93.4694 237.08 93.5783 237.481 93.8437C237.882 94.109 238.17 94.5089 238.282 94.9556C238.394 95.4022 238.321 95.8589 238.078 96.2252C237.614 96.9265 237.003 97.5209 236.281 97.9744C235.558 98.4279 234.738 98.7317 233.867 98.8684C232.996 99.0051 232.092 98.9721 231.205 98.7711C230.318 98.5702 229.467 98.2053 228.699 97.6974V97.6974Z" fill="#68FCD6"/>
<path d="M222.02 107.789L206.281 97.3714C205.88 97.1061 205.592 96.7061 205.48 96.2595C205.368 95.8129 205.441 95.3562 205.684 94.9899C205.926 94.6236 206.318 94.3777 206.773 94.3063C207.228 94.2349 207.708 94.3438 208.109 94.6091L223.848 105.026C224.249 105.292 224.537 105.692 224.649 106.138C224.761 106.585 224.688 107.042 224.446 107.408C224.203 107.774 223.811 108.02 223.356 108.092C222.902 108.163 222.421 108.054 222.02 107.789V107.789Z" fill="#68FCD6"/>
</g>
<path d="M830.66 109H819.34C818.245 109 817.194 108.565 816.42 107.79C815.645 107.016 815.21 105.965 815.21 104.87V93.53C815.21 92.4346 815.645 91.3842 816.42 90.6096C817.194 89.8351 818.245 89.4 819.34 89.4H830.66C831.755 89.4 832.806 89.8351 833.58 90.6096C834.355 91.3842 834.79 92.4346 834.79 93.53V104.85C834.793 105.394 834.688 105.933 834.481 106.437C834.275 106.94 833.971 107.398 833.587 107.783C833.204 108.169 832.748 108.475 832.245 108.684C831.743 108.893 831.204 109 830.66 109V109ZM819.34 90.9C818.642 90.9 817.974 91.1771 817.48 91.6703C816.987 92.1635 816.71 92.8325 816.71 93.53V104.85C816.71 105.548 816.987 106.216 817.48 106.71C817.974 107.203 818.642 107.48 819.34 107.48H830.66C831.358 107.48 832.026 107.203 832.52 106.71C833.013 106.216 833.29 105.548 833.29 104.85V93.53C833.29 93.1846 833.222 92.8426 833.09 92.5235C832.958 92.2044 832.764 91.9145 832.52 91.6703C832.275 91.4261 831.986 91.2324 831.666 91.1002C831.347 90.968 831.005 90.9 830.66 90.9H819.34Z" fill="#68FCD6"/>
<path d="M831.13 99.14C830.932 99.1374 830.743 99.0576 830.603 98.9175C830.462 98.7774 830.383 98.5881 830.38 98.39C830.35 98.0378 830.189 97.7097 829.929 97.4705C829.669 97.2314 829.328 97.0986 828.975 97.0986C828.622 97.0986 828.281 97.2314 828.021 97.4705C827.761 97.7097 827.6 98.0378 827.57 98.39C827.57 98.5889 827.491 98.7797 827.35 98.9203C827.21 99.061 827.019 99.14 826.82 99.14C826.621 99.14 826.43 99.061 826.29 98.9203C826.149 98.7797 826.07 98.5889 826.07 98.39C826.114 97.649 826.439 96.9527 826.979 96.4434C827.519 95.9342 828.233 95.6505 828.975 95.6505C829.717 95.6505 830.431 95.9342 830.971 96.4434C831.512 96.9527 831.837 97.649 831.88 98.39C831.877 98.5881 831.798 98.7774 831.657 98.9175C831.517 99.0576 831.328 99.1374 831.13 99.14V99.14Z" fill="#68FCD6"/>
<path d="M823.34 99.14C823.142 99.1374 822.953 99.0576 822.813 98.9175C822.672 98.7774 822.593 98.5881 822.59 98.39C822.59 98.0187 822.443 97.6626 822.18 97.4C821.917 97.1375 821.561 96.99 821.19 96.99C820.819 96.99 820.463 97.1375 820.2 97.4C819.938 97.6626 819.79 98.0187 819.79 98.39C819.79 98.5889 819.711 98.7797 819.57 98.9203C819.43 99.061 819.239 99.14 819.04 99.14C818.841 99.14 818.65 99.061 818.51 98.9203C818.369 98.7797 818.29 98.5889 818.29 98.39C818.29 97.6209 818.596 96.8832 819.139 96.3394C819.683 95.7955 820.421 95.49 821.19 95.49C821.959 95.49 822.697 95.7955 823.241 96.3394C823.784 96.8832 824.09 97.6209 824.09 98.39C824.09 98.5889 824.011 98.7797 823.87 98.9203C823.73 99.061 823.539 99.14 823.34 99.14Z" fill="#68FCD6"/>
<path d="M829 104.62H821.19C820.991 104.62 820.8 104.541 820.66 104.4C820.519 104.26 820.44 104.069 820.44 103.87C820.44 103.671 820.519 103.48 820.66 103.34C820.8 103.199 820.991 103.12 821.19 103.12H829C829.199 103.12 829.39 103.199 829.53 103.34C829.671 103.48 829.75 103.671 829.75 103.87C829.75 104.069 829.671 104.26 829.53 104.4C829.39 104.541 829.199 104.62 829 104.62V104.62Z" fill="#68FCD6"/>
</g>
<defs>
<filter id="filter0_d_1_3" x="0" y="0" width="1608" height="308" filterUnits="userSpaceOnUse" color-interpolation-filters="sRGB">
<feFlood flood-opacity="0" result="BackgroundImageFix"/>
<feColorMatrix in="SourceAlpha" type="matrix" values="0 0 0 0 0 0 0 0 0 0 0 0 0 0 0 0 0 0 127 0" result="hardAlpha"/>
<feOffset dy="4"/>
<feGaussianBlur stdDeviation="2"/>
<feComposite in2="hardAlpha" operator="out"/>
<feColorMatrix type="matrix" values="0 0 0 0 0 0 0 0 0 0 0 0 0 0 0 0 0 0 0.25 0"/>
<feBlend mode="normal" in2="BackgroundImageFix" result="effect1_dropShadow_1_3"/>
<feBlend mode="normal" in="SourceGraphic" in2="effect1_dropShadow_1_3" result="shape"/>
</filter>
<filter id="filter1_i_1_3" x="575.24" y="117.608" width="258.296" height="80.672" filterUnits="userSpaceOnUse" color-interpolation-filters="sRGB">
<feFlood flood-opacity="0" result="BackgroundImageFix"/>
<feBlend mode="normal" in="SourceGraphic" in2="BackgroundImageFix" result="shape"/>
<feColorMatrix in="SourceAlpha" type="matrix" values="0 0 0 0 0 0 0 0 0 0 0 0 0 0 0 0 0 0 127 0" result="hardAlpha"/>
<feOffset dy="4"/>
<feGaussianBlur stdDeviation="2"/>
<feComposite in2="hardAlpha" operator="arithmetic" k2="-1" k3="1"/>
<feColorMatrix type="matrix" values="0 0 0 0 0 0 0 0 0 0 0 0 0 0 0 0 0 0 0.25 0"/>
<feBlend mode="normal" in2="shape" result="effect1_innerShadow_1_3"/>
</filter>
<filter id="filter2_i_1_3" x="1031.53" y="32.6719" width="164.564" height="170.582" filterUnits="userSpaceOnUse" color-interpolation-filters="sRGB">
<feFlood flood-opacity="0" result="BackgroundImageFix"/>
<feBlend mode="normal" in="SourceGraphic" in2="BackgroundImageFix" result="shape"/>
<feColorMatrix in="SourceAlpha" type="matrix" values="0 0 0 0 0 0 0 0 0 0 0 0 0 0 0 0 0 0 127 0" result="hardAlpha"/>
<feOffset dy="4"/>
<feGaussianBlur stdDeviation="2"/>
<feComposite in2="hardAlpha" operator="arithmetic" k2="-1" k3="1"/>
<feColorMatrix type="matrix" values="0 0 0 0 0 0 0 0 0 0 0 0 0 0 0 0 0 0 0.25 0"/>
<feBlend mode="normal" in2="shape" result="effect1_innerShadow_1_3"/>
</filter>
<filter id="filter3_i_1_3" x="229.814" y="229.318" width="64.2401" height="62.6324" filterUnits="userSpaceOnUse" color-interpolation-filters="sRGB">
<feFlood flood-opacity="0" result="BackgroundImageFix"/>
<feBlend mode="normal" in="SourceGraphic" in2="BackgroundImageFix" result="shape"/>
<feColorMatrix in="SourceAlpha" type="matrix" values="0 0 0 0 0 0 0 0 0 0 0 0 0 0 0 0 0 0 127 0" result="hardAlpha"/>
<feOffset dy="4"/>
<feGaussianBlur stdDeviation="2"/>
<feComposite in2="hardAlpha" operator="arithmetic" k2="-1" k3="1"/>
<feColorMatrix type="matrix" values="0 0 0 0 0 0 0 0 0 0 0 0 0 0 0 0 0 0 0.25 0"/>
<feBlend mode="normal" in2="shape" result="effect1_innerShadow_1_3"/>
</filter>
<filter id="filter4_i_1_3" x="-45.9079" y="160.162" width="162.224" height="169.555" filterUnits="userSpaceOnUse" color-interpolation-filters="sRGB">
<feFlood flood-opacity="0" result="BackgroundImageFix"/>
<feBlend mode="normal" in="SourceGraphic" in2="BackgroundImageFix" result="shape"/>
<feColorMatrix in="SourceAlpha" type="matrix" values="0 0 0 0 0 0 0 0 0 0 0 0 0 0 0 0 0 0 127 0" result="hardAlpha"/>
<feOffset dy="4"/>
<feGaussianBlur stdDeviation="2"/>
<feComposite in2="hardAlpha" operator="arithmetic" k2="-1" k3="1"/>
<feColorMatrix type="matrix" values="0 0 0 0 0 0 0 0 0 0 0 0 0 0 0 0 0 0 0.25 0"/>
<feBlend mode="normal" in2="shape" result="effect1_innerShadow_1_3"/>
</filter>
<filter id="filter5_i_1_3" x="1319" y="126" width="164.026" height="169.202" filterUnits="userSpaceOnUse" color-interpolation-filters="sRGB">
<feFlood flood-opacity="0" result="BackgroundImageFix"/>
<feBlend mode="normal" in="SourceGraphic" in2="BackgroundImageFix" result="shape"/>
<feColorMatrix in="SourceAlpha" type="matrix" values="0 0 0 0 0 0 0 0 0 0 0 0 0 0 0 0 0 0 127 0" result="hardAlpha"/>
<feOffset dy="4"/>
<feGaussianBlur stdDeviation="2"/>
<feComposite in2="hardAlpha" operator="arithmetic" k2="-1" k3="1"/>
<feColorMatrix type="matrix" values="0 0 0 0 0 0 0 0 0 0 0 0 0 0 0 0 0 0 0.25 0"/>
<feBlend mode="normal" in2="shape" result="effect1_innerShadow_1_3"/>
</filter>
<filter id="filter6_i_1_3" x="385.509" y="87.4" width="163.983" height="137.933" filterUnits="userSpaceOnUse" color-interpolation-filters="sRGB">
<feFlood flood-opacity="0" result="BackgroundImageFix"/>
<feBlend mode="normal" in="SourceGraphic" in2="BackgroundImageFix" result="shape"/>
<feColorMatrix in="SourceAlpha" type="matrix" values="0 0 0 0 0 0 0 0 0 0 0 0 0 0 0 0 0 0 127 0" result="hardAlpha"/>
<feOffset dy="4"/>
<feGaussianBlur stdDeviation="2"/>
<feComposite in2="hardAlpha" operator="arithmetic" k2="-1" k3="1"/>
<feColorMatrix type="matrix" values="0 0 0 0 0 0 0 0 0 0 0 0 0 0 0 0 0 0 0.25 0"/>
<feBlend mode="normal" in2="shape" result="effect1_innerShadow_1_3"/>
</filter>
<filter id="filter7_i_1_3" x="1216.01" y="147.202" width="109.652" height="99.9319" filterUnits="userSpaceOnUse" color-interpolation-filters="sRGB">
<feFlood flood-opacity="0" result="BackgroundImageFix"/>
<feBlend mode="normal" in="SourceGraphic" in2="BackgroundImageFix" result="shape"/>
<feColorMatrix in="SourceAlpha" type="matrix" values="0 0 0 0 0 0 0 0 0 0 0 0 0 0 0 0 0 0 127 0" result="hardAlpha"/>
<feOffset dy="4"/>
<feGaussianBlur stdDeviation="2"/>
<feComposite in2="hardAlpha" operator="arithmetic" k2="-1" k3="1"/>
<feColorMatrix type="matrix" values="0 0 0 0 0 0 0 0 0 0 0 0 0 0 0 0 0 0 0.25 0"/>
<feBlend mode="normal" in2="shape" result="effect1_innerShadow_1_3"/>
</filter>
<clipPath id="clip0_1_3">
<rect width="1600" height="300" fill="white" transform="translate(4)"/>
</clipPath>
<clipPath id="clip1_1_3">
<rect width="171" height="156" fill="white" transform="translate(148.302 218.59) rotate(125.5)"/>
</clipPath>
<clipPath id="clip2_1_3">
<rect width="117" height="121" fill="white" transform="translate(1319 189.723) rotate(-33)"/>
</clipPath>
<clipPath id="clip3_1_3">
<rect width="24" height="24" fill="white" transform="translate(321.003 132.463) rotate(148.5)"/>
</clipPath>
<clipPath id="clip4_1_3">
<rect width="58" height="53" fill="white" transform="translate(211.253 54) rotate(33.5)"/>
</clipPath>
</defs>
</svg>
